<svg width="356" height="85" viewBox="0 0 356 85" fill="none" xmlns="http://www.w3.org/2000/svg">
<path d="M354.609 5.5509C354.882 5.5901 355.135 5.40029 355.174 5.12695C355.214 4.8536 355.024 4.60023 354.75 4.56103L354.68 5.05596L354.609 5.5509ZM0.0862427 79.5255L-3.75509e-06 80.018C42.0694 87.3851 71.9905 84.4979 96.5411 76.4767C121.075 68.4612 140.218 55.3238 160.694 42.2776C181.18 29.2256 203.035 16.2378 233.07 8.41158C263.104 0.58524 301.351 -2.08723 354.609 5.5509L354.68 5.05596L354.75 4.56103C301.392 -3.09157 263.008 -0.42297 232.817 7.44389C202.627 15.3108 180.664 28.3684 160.157 41.4342C139.64 54.5058 120.617 67.5587 96.2305 75.5262C71.8613 83.4881 42.1092 86.3768 0.172489 79.033L0.0862427 79.5255Z" fill="#1A202C"/>
</svg>
